# xmcd
#
# Track frame offsets: 
#        150
#        15627
#        37078
#        58102
#        69533
#        89003
#        100319
#        123730
#        143602
#        175322
#        190328
#
# Disc length: 2773 seconds
#
# Revision: 0
# Processed by: cddbd v1.5.2PL0 Copyright (c) Steve Scherf et al.
# Submitted via: ExactAudioCopy v0.99pb4
#
DISCID=a20ad30b
DTITLE=RJ Spangler's Blue Four - You Know I Can't Refuse: The Bill Hei
DTITLE=d Sessions
DYEAR=2010
DGENRE=Blues
TTITLE0=Ninety Nine
TTITLE1=Red Cherries
TTITLE2=Baby Lets Go Down to the Wood
TTITLE3=Too Much Jelly Roll
TTITLE4=Failing By Degrees
TTITLE5=Boogie For Mr. B
TTITLE6=Piney Brown Blues
TTITLE7=Times Getting Tugher Than Tough
TTITLE8=I'm Gonna Move To the Outskirts of Town
TTITLE9=You Know I Can't Refuse
TTITLE10=Meet Me Baby
EXTD=
EXTT0=
EXTT1=
EXTT2=
EXTT3=
EXTT4=
EXTT5=
EXTT6=
EXTT7=
EXTT8=
EXTT9=
EXTT10=
PLAYORDER=
